<svg width="800" height="800" viewBox="0 0 800 800" fill="none" xmlns="http://www.w3.org/2000/svg">
<g clip-path="url(#clip0_19_36)">
<path fill-rule="evenodd" clip-rule="evenodd" d="M523.75 276.251C513.975 266.501 498.15 266.501 488.4 276.251L400 364.749L311.6 276.251C301.85 266.501 286.025 266.501 276.25 276.251C266.5 286.001 266.5 301.749 276.25 311.499L364.65 400L276.25 488.501C266.5 498.251 266.5 513.999 276.25 523.749C286.025 533.499 301.85 533.499 311.6 523.749L400 435.251L488.4 523.749C498.15 533.499 513.975 533.499 523.75 523.749C533.5 513.999 533.5 498.251 523.75 488.501L435.35 400L523.75 311.499C533.5 301.749 533.5 286.001 523.75 276.251ZM750 700C750 727.5 727.6 750 700 750H100C72.4 750 50 727.5 50 700V100C50 72.5 72.4 50 100 50H700C727.6 50 750 72.5 750 100V700ZM700 0H100C44.775 0 0 44.75 0 100V700C0 755.25 44.775 800 100 800H700C755.225 800 800 755.25 800 700V100C800 44.75 755.225 0 700 0Z" fill="white"/>
</g>
<defs>
<clipPath id="clip0_19_36">
<rect width="800" height="800" fill="white"/>
</clipPath>
</defs>
</svg>
