<svg width="800" height="800" viewBox="0 0 800 800" fill="none" xmlns="http://www.w3.org/2000/svg">
<path fill-rule="evenodd" clip-rule="evenodd" d="M760 160C760 170.609 755.786 180.783 748.284 188.284C740.783 195.786 730.609 200 720 200H80C69.3913 200 59.2172 195.786 51.7157 188.284C44.2143 180.783 40 170.609 40 160C40 149.391 44.2143 139.217 51.7157 131.716C59.2172 124.214 69.3913 120 80 120H720C730.609 120 740.783 124.214 748.284 131.716C755.786 139.217 760 149.391 760 160ZM760 400C760 410.609 755.786 420.783 748.284 428.284C740.783 435.786 730.609 440 720 440H80C69.3913 440 59.2172 435.786 51.7157 428.284C44.2143 420.783 40 410.609 40 400C40 389.391 44.2143 379.217 51.7157 371.716C59.2172 364.214 69.3913 360 80 360H720C730.609 360 740.783 364.214 748.284 371.716C755.786 379.217 760 389.391 760 400ZM720 680C730.609 680 740.783 675.786 748.284 668.284C755.786 660.783 760 650.609 760 640C760 629.391 755.786 619.217 748.284 611.716C740.783 604.214 730.609 600 720 600H80C69.3913 600 59.2172 604.214 51.7157 611.716C44.2143 619.217 40 629.391 40 640C40 650.609 44.2143 660.783 51.7157 668.284C59.2172 675.786 69.3913 680 80 680H720Z" fill="white"/>
</svg>
